<svg width="200" height="210" viewBox="0 0 200 210" fill="none" xmlns="http://www.w3.org/2000/svg">
<path d="M99.3071 188.167C147.733 188.167 186.991 148.91 186.991 100.483C186.991 52.0571 147.733 12.7998 99.3071 12.7998C50.8808 12.7998 11.6235 52.0571 11.6235 100.483C11.6235 148.91 50.8808 188.167 99.3071 188.167Z" fill="#EAEEF9"/>
<path d="M128.497 99.4882C128.497 107.449 125.291 114.637 120.315 119.944C119.983 120.497 119.431 120.829 118.878 121.16C113.57 126.136 106.383 129.122 98.6431 129.122C92.451 129.122 86.5907 127.131 81.7255 123.814C80.2881 122.929 79.0718 121.713 77.8555 120.607C72.3269 115.3 69.0098 107.781 69.0098 99.3777C69.0098 83.013 82.389 69.6338 98.7536 69.6338C115.229 69.7444 128.497 83.1236 128.497 99.4882Z" fill="white"/>
<path d="M128.498 99.4883C128.498 108.223 124.739 115.853 118.878 121.382C113.571 126.357 106.384 129.343 98.6435 129.343C92.4515 129.343 86.5912 127.352 81.726 124.035C73.8754 118.728 68.8997 109.771 68.8997 99.5989C68.8997 83.2342 82.2789 69.855 98.6435 69.855C115.008 69.855 128.498 83.1236 128.498 99.4883Z" fill="#F1F3F9" stroke="#D6DCE8" stroke-width="2" stroke-miterlimit="10"/>
<path d="M120.316 119.944C119.985 120.497 119.432 120.829 118.879 121.16C113.571 126.136 106.384 129.121 98.6442 129.121C92.4522 129.121 86.5919 127.131 81.7267 123.814C80.2893 122.929 79.073 121.713 77.8567 120.607C78.5201 119.723 79.6258 119.17 81.9479 118.285L82.8324 117.954C84.6016 117.29 87.1447 116.406 90.3513 114.968C90.9042 114.747 91.2359 114.415 91.5676 114.084C91.7888 113.863 91.8993 113.752 91.8993 113.42C92.1205 113.089 92.2311 112.536 92.2311 112.204V106.122C92.0099 105.901 92.0099 105.901 91.8993 105.791C91.3465 105.127 91.0148 104.243 91.0148 103.137L90.683 102.916C89.135 103.248 89.2456 101.7 88.9139 98.493C88.6927 97.2767 88.9139 96.945 89.5773 96.7239L90.1302 96.0604C89.0245 93.5173 88.5822 91.3058 88.5822 89.4261C88.5822 86.4407 89.7985 84.4504 91.5676 83.5658C90.4619 81.4649 90.4619 80.6909 90.4619 80.6909C90.4619 80.6909 96.6539 81.7966 98.8654 81.3543C101.519 80.8015 105.831 81.5755 107.379 85.1138C110.033 86.2195 110.918 87.7675 111.249 89.5367C111.581 92.4115 110.033 95.397 109.701 96.6133V96.8344C110.033 97.0556 110.254 97.3873 110.033 98.6036C109.701 101.589 109.701 103.358 108.264 103.026L106.827 105.57C106.827 105.901 106.827 105.901 106.605 106.122C106.605 106.675 106.605 107.56 106.605 112.315C106.605 112.867 106.827 113.531 107.158 113.863C107.379 114.084 107.379 114.194 107.49 114.194C107.822 114.526 108.153 114.858 108.596 114.858C112.134 116.295 114.677 117.401 116.557 118.064C118.437 118.838 119.653 119.391 120.316 119.944Z" fill="white"/>
<path d="M120.316 119.944C119.985 120.497 119.432 120.828 118.879 121.16C113.571 126.136 106.384 129.121 98.6442 129.121C92.4522 129.121 86.5919 127.131 81.7267 123.814C80.2893 122.929 79.073 121.713 77.8567 120.607C78.5201 119.723 79.6258 119.17 81.9479 118.285L82.8324 117.954C84.6016 117.29 87.1447 116.406 90.3513 114.968C90.9042 114.747 91.2359 114.415 91.5676 114.083C93.3368 116.627 96.2116 118.175 99.5288 118.175C102.735 118.175 105.61 116.627 107.379 114.305C107.711 114.636 108.043 114.968 108.485 114.968C112.023 116.406 114.567 117.511 116.446 118.175C118.437 118.838 119.653 119.391 120.316 119.944Z" fill="#D6DCE8"/>
<path d="M109.479 96.3924C109.701 95.7289 109.258 94.6232 108.927 94.0704C108.927 93.8492 108.705 93.8492 108.705 93.7386C107.489 91.1955 104.835 90.3109 102.292 90.2003C95.6579 89.8686 95.2156 91.0849 93.2253 89.3158C93.8887 90.2003 93.8887 91.8589 92.8936 93.6281C92.2302 94.8444 90.9033 95.6184 89.687 95.9501C86.7016 89.2052 88.2496 84.8929 91.1244 83.4554C90.0187 81.3546 90.0187 80.5806 90.0187 80.5806C90.0187 80.5806 96.2108 81.6863 98.4222 81.244C101.076 80.6911 105.388 81.4651 106.936 85.0035C109.59 86.1092 110.475 87.6572 110.806 89.4263C111.47 92.1906 109.811 95.1761 109.479 96.3924Z" fill="#AAB2C5"/>
<path d="M92.4518 112.094V106.012C92.2307 105.791 92.2307 105.791 92.1201 105.68V105.349C92.4518 105.901 92.7835 106.454 93.3364 106.786L98.091 110.214C99.1967 111.098 100.745 111.098 101.85 110.214L106.273 106.344C106.494 106.123 106.605 106.123 106.826 106.012C106.826 106.565 106.826 107.45 106.826 112.204C106.826 112.536 106.826 112.757 107.047 113.089H92.4518C92.2307 112.646 92.4518 112.425 92.4518 112.094Z" fill="url(#paint0_linear_445_245150)"/>
<g opacity="0.6">
<mask id="mask0_445_245150" style="mask-type:alpha" maskUnits="userSpaceOnUse" x="10" y="11" width="178" height="179">
<path d="M99.3071 188.167C147.733 188.167 186.991 148.91 186.991 100.483C186.991 52.0571 147.733 12.7998 99.3071 12.7998C50.8808 12.7998 11.6235 52.0571 11.6235 100.483C11.6235 148.91 50.8808 188.167 99.3071 188.167Z" fill="#F1F3F9" stroke="#D6DCE8" stroke-width="2" stroke-miterlimit="10"/>
</mask>
<g mask="url(#mask0_445_245150)">
<path d="M63.7024 54.5961C63.7024 61.2304 60.9381 67.0907 56.4046 71.2925C55.1883 72.3982 53.8615 73.3933 52.3135 74.2779C48.9963 76.2682 45.0157 77.3739 40.814 77.3739C36.6122 77.3739 32.6316 76.2682 29.3145 74.2779C28.7616 73.9462 28.3193 73.725 27.7665 73.2828C21.9062 69.1916 18.0361 62.3361 18.0361 54.5961C18.0361 41.9909 28.3193 31.8183 40.814 31.8183C53.5297 31.7077 63.7024 41.9909 63.7024 54.5961Z" fill="#F1F3F9" stroke="#D6DCE8" stroke-width="2" stroke-miterlimit="10"/>
<path d="M36.2808 59.6822C36.6125 60.0139 36.8337 60.3456 37.276 60.6773C37.6077 61.009 37.8288 61.1196 38.1605 61.3408C38.2711 61.4513 38.6028 61.6725 38.7134 61.783C38.7134 61.783 38.824 61.783 38.824 61.8936L38.9345 62.0042V63.9945C38.9345 63.9945 38.9345 63.9945 38.824 63.8839C38.7134 63.7733 38.3817 63.5522 38.2711 63.4416C37.9394 63.3311 37.7182 62.9993 37.3865 62.8888C37.276 62.8888 37.276 62.7782 37.0548 62.7782C36.0597 62.2253 35.2857 61.6725 35.2857 60.8985C35.3962 60.6773 35.7279 60.235 36.2808 59.6822ZM55.7415 70.5182C54.8569 68.6385 53.7512 66.9799 51.7609 65.9848C50.7657 65.5425 49.66 65.1002 48.5543 65.1002C48.2226 65.1002 47.8909 65.1002 47.5592 65.1002C47.4486 65.1002 47.2274 65.1002 47.1169 65.1002C45.5689 64.9896 45.4583 64.6579 45.4583 64.6579V61.4513C46.4534 60.5668 47.4486 59.5716 48.2226 58.687C48.886 57.6919 49.4389 56.5862 49.7706 55.1487C50.9869 54.817 51.8715 53.7113 51.7609 52.3844C51.7609 51.8316 51.3186 51.2787 51.3186 50.7258C51.3186 50.3941 51.3186 50.173 51.3186 49.8413C51.3186 49.7307 51.3186 49.399 51.3186 49.2884C51.3186 49.1778 51.3186 48.8461 51.3186 48.7355C51.208 47.7404 50.8763 46.7453 50.3235 45.6395C48.6649 42.5435 45.5689 40.5532 41.92 40.5532C41.2565 40.5532 40.4825 40.6638 39.8191 40.8849C38.6028 41.2167 37.276 41.7695 36.2808 42.5435C36.1702 42.6541 35.8385 42.8752 35.7279 43.0964L35.6174 43.2069C34.5117 44.3127 33.5165 45.6395 33.0742 47.1875C32.5214 48.7355 32.5214 50.2836 32.6319 51.8316C32.6319 51.8316 32.6319 51.8316 32.6319 51.9421V52.0527C32.6319 52.3844 32.7425 52.3844 32.6319 52.495C32.6319 52.6056 32.5214 52.6056 32.5214 52.8267C32.1896 53.269 32.0791 53.8219 32.4108 54.7064C32.9636 56.1439 33.8482 55.9227 34.8434 56.6967C34.8434 56.6967 34.7328 56.6967 34.7328 56.8073L33.7377 57.0285C29.2042 58.4659 27.6562 62.2253 29.6465 64.6579C30.3099 65.5425 31.4156 66.2059 33.1848 66.6482C32.7425 66.6482 32.3002 66.9799 32.0791 67.2011C30.0888 68.7491 28.8725 71.1817 28.5408 73.3931C28.5408 73.5037 28.5408 73.7248 28.5408 73.8354C29.0936 74.1671 29.5359 74.4988 30.0888 74.8305L52.0926 74.2777C53.53 73.3931 54.0829 72.7297 55.4098 71.624C55.1886 70.8499 55.9626 70.6288 55.7415 70.5182Z" fill="white"/>
<path d="M56.4045 71.2926C55.1882 72.3984 53.8613 73.3935 52.3133 74.2781C48.9962 76.2684 45.0156 77.3741 40.8139 77.3741C36.6121 77.3741 32.6315 76.2684 29.3144 74.2781C28.7615 73.9464 28.3192 73.7252 27.7664 73.2829C27.7664 73.1724 27.7664 72.9512 27.7664 72.8407C28.0981 70.6292 29.3144 68.1966 31.3047 66.6486C31.6364 66.3169 31.9681 66.2063 32.4104 66.0958C30.7518 65.764 29.6461 65.1006 28.8721 64.1055H34.1795C35.7275 66.2063 38.1601 67.4226 40.9244 67.4226C43.357 67.4226 45.4579 66.4275 47.0059 64.8795C47.1165 64.8795 47.3376 64.8795 47.4482 64.8795C47.7799 64.8795 48.001 64.8795 48.4433 64.8795C49.549 64.8795 50.6548 65.2112 51.6499 65.764C53.6402 66.7592 54.9671 68.4178 55.9622 70.4081C56.2939 70.7398 56.2939 71.0715 56.4045 71.2926Z" fill="#D6DCE8"/>
<path d="M51.4297 49.2886C49.7711 49.8414 47.7808 50.1732 46.0117 49.952C43.0262 49.6203 40.2619 48.5146 38.0505 46.6349C37.3871 48.7357 35.5073 50.2837 33.4065 51.2789C33.0748 51.3894 32.8536 51.6106 32.5219 51.6106C32.5219 51.6106 32.5219 51.6106 32.5219 51.5C32.4113 49.952 32.4113 48.404 32.9642 46.856C33.4065 45.308 34.4016 44.0917 35.5073 42.8754L35.6179 42.7648C35.7285 42.6543 36.0602 42.4331 36.1708 42.212C37.1659 41.3274 38.3822 40.7745 39.7091 40.5534C40.3725 40.4428 41.1465 40.2217 41.8099 40.2217C45.4588 40.2217 48.6654 42.212 50.2134 45.308C50.7663 46.4137 51.098 47.5194 51.2086 48.404C51.4297 48.8463 51.4297 49.0674 51.4297 49.2886Z" fill="#AAB2C5"/>
<path d="M40.1509 70.0762C39.2663 71.0713 37.9394 71.0713 36.6126 71.0713C37.8288 69.855 37.1654 65.7638 32.632 66.2061C26.4399 65.1004 26.9928 58.5767 33.1848 56.6969L34.18 56.3652L34.2905 56.4758C34.7328 57.6921 35.3963 58.9084 36.0597 59.6824C33.5165 61.7833 37.0548 62.3361 38.7134 63.9947C40.2614 64.8793 41.5883 68.307 40.1509 70.0762Z" fill="#AAB2C5"/>
<path d="M180.688 59.2402C180.688 65.9851 177.923 72.0666 173.722 76.6C173.39 77.0423 172.948 77.374 172.505 77.7057C167.972 81.9075 162.001 84.4506 155.367 84.4506C150.059 84.4506 145.083 82.792 141.103 79.9172C139.887 79.1432 138.891 78.148 137.786 77.1529C133.142 72.6194 130.267 66.3168 130.267 59.2402C130.267 45.4187 141.545 34.0298 155.367 34.0298C169.409 34.0298 180.688 45.4187 180.688 59.2402Z" fill="#D6DCE8"/>
<path d="M180.688 59.24C180.688 66.6483 177.481 73.0615 172.505 77.8161C167.972 82.0178 162.001 84.561 155.367 84.561C150.059 84.561 145.083 82.9024 141.103 80.0275C134.469 75.4941 130.267 67.9752 130.267 59.3505C130.267 45.5291 141.545 34.1401 155.367 34.1401C169.188 34.2507 180.688 45.4185 180.688 59.24Z" fill="#F1F3F9" stroke="#D6DCE8" stroke-width="2" stroke-miterlimit="10"/>
<path d="M173.722 76.6C173.39 77.0423 172.948 77.374 172.506 77.7058C167.972 81.9075 162.001 84.4507 155.367 84.4507C150.059 84.4507 145.084 82.7921 141.103 79.9172C139.887 79.1432 138.892 78.148 137.786 77.1529C138.339 76.3789 139.334 75.9366 141.214 75.1626L141.988 74.8309C143.536 74.278 145.637 73.504 148.29 72.2877C148.733 72.1772 149.064 71.8454 149.396 71.5137C149.507 71.4032 149.728 71.182 149.728 70.9609C149.838 70.6291 150.059 70.1869 150.059 69.8551V64.7688C149.949 64.6583 149.949 64.6583 149.728 64.4371C149.285 63.8843 148.954 63.1103 148.954 62.2257L148.622 62.1151C147.295 62.4468 147.406 61.0094 147.074 58.3557C146.963 57.2499 147.074 57.0288 147.627 56.8077L148.069 56.2548C147.185 54.1539 146.742 52.1636 146.742 50.7262C146.742 48.183 147.848 46.5245 149.285 45.7505C148.401 43.9813 148.401 43.3179 148.401 43.3179C148.401 43.3179 153.708 44.2024 155.477 43.8707C157.689 43.4284 161.338 43.9813 162.665 47.0773C164.876 47.9619 165.65 49.2888 165.982 50.8368C166.313 53.2694 164.876 55.8125 164.655 56.8077V57.0288C164.987 57.1394 165.097 57.4711 164.987 58.5768C164.655 61.12 164.655 62.668 163.439 62.3363L162.222 64.4371C162.222 64.7688 162.222 64.7688 162.112 64.8794C162.112 65.3217 162.112 66.0957 162.112 70.1869C162.112 70.6292 162.222 71.2926 162.554 71.5137C162.665 71.6243 162.665 71.8454 162.886 71.8454C163.217 72.1772 163.439 72.3983 163.77 72.3983C166.756 73.6146 168.857 74.4992 170.515 75.1626C172.063 75.7155 173.169 76.1577 173.722 76.6Z" fill="white"/>
<path d="M173.722 76.6C173.39 77.0423 172.948 77.374 172.506 77.7057C167.972 81.9074 162.001 84.4506 155.367 84.4506C150.059 84.4506 145.084 82.792 141.103 79.9171C139.887 79.1431 138.892 78.148 137.786 77.1528C138.339 76.3788 139.334 75.9366 141.214 75.1626L141.988 74.8308C143.536 74.278 145.637 73.504 148.29 72.2877C148.733 72.1771 149.064 71.8454 149.396 71.5137C150.944 73.6145 153.266 74.9414 156.141 74.9414C158.905 74.9414 161.227 73.6145 162.775 71.6242C163.107 71.956 163.328 72.1771 163.66 72.1771C166.645 73.3934 168.746 74.278 170.405 74.9414C172.063 75.7154 173.169 76.1577 173.722 76.6Z" fill="#D6DCE8"/>
<path d="M164.545 56.6971C164.655 56.1442 164.434 55.1491 164.102 54.7068C164.102 54.5962 163.992 54.5962 163.992 54.3751C162.886 52.2742 160.675 51.5002 158.574 51.3896C153.045 51.0579 152.603 52.1636 150.944 50.6156C151.497 51.3896 151.497 52.7165 150.613 54.2645C150.06 55.3702 148.954 55.9231 147.848 56.2548C145.305 50.505 146.632 46.9667 149.065 45.7505C148.18 43.9813 148.18 43.3179 148.18 43.3179C148.18 43.3179 153.487 44.2024 155.257 43.8707C157.468 43.4284 161.117 43.9813 162.444 47.0773C164.655 47.9619 165.429 49.2888 165.761 50.8368C166.203 53.0482 164.876 55.5914 164.545 56.6971Z" fill="#AAB2C5"/>
<path d="M83.9379 156.654C83.9379 162.957 81.3948 168.596 77.5247 172.798C77.193 173.24 76.8613 173.461 76.419 173.793C72.2173 177.773 66.5781 180.095 60.3861 180.095C55.5209 180.095 50.8769 178.547 47.0069 175.894C45.9012 175.23 44.906 174.235 43.9109 173.35C39.5986 169.149 36.9448 163.288 36.9448 156.654C36.9448 143.717 47.4492 133.213 60.3861 133.213C73.4336 133.102 83.9379 143.717 83.9379 156.654Z" fill="#D6DCE8"/>
<path d="M83.9377 156.654C83.9377 163.509 80.9522 169.591 76.3082 173.903C72.1064 177.884 66.4673 180.206 60.2752 180.206C55.4101 180.206 50.7661 178.658 46.896 176.004C40.704 171.802 36.834 164.726 36.834 156.765C36.834 143.828 47.3383 133.323 60.2752 133.323C73.3227 133.323 83.9377 143.717 83.9377 156.654Z" fill="#F1F3F9" stroke="#D6DCE8" stroke-width="2" stroke-miterlimit="10"/>
<path d="M77.5248 172.798C77.1931 173.24 76.8613 173.461 76.4191 173.793C72.2173 177.773 66.5781 180.095 60.3861 180.095C55.5209 180.095 50.8769 178.547 47.0069 175.894C45.9012 175.23 44.906 174.235 43.9109 173.35C44.4637 172.687 45.3483 172.245 47.1175 171.471L47.7809 171.139C49.2183 170.586 51.0981 169.923 53.6412 168.706C54.0835 168.596 54.3047 168.264 54.6364 168.043C54.7469 167.932 54.9681 167.711 54.9681 167.49C55.0787 167.158 55.2998 166.827 55.2998 166.495V161.74C55.1892 161.63 55.1892 161.63 54.9681 161.409C54.5258 160.856 54.3047 160.192 54.3047 159.308L53.9729 159.197C52.7566 159.529 52.8672 158.202 52.5355 155.659C52.4249 154.664 52.5355 154.443 53.0884 154.221L53.5307 153.669C52.6461 151.678 52.3144 149.909 52.3144 148.472C52.3144 146.039 53.3095 144.491 54.7469 143.828C53.8624 142.169 53.8624 141.616 53.8624 141.616C53.8624 141.616 58.7275 142.501 60.4967 142.169C62.5976 141.727 65.9147 142.28 67.2416 145.155C69.3424 146.039 70.0059 147.255 70.3376 148.693C70.6693 150.904 69.3424 153.337 69.1213 154.332V154.443C69.453 154.553 69.5636 154.885 69.453 155.88C69.1213 158.313 69.1213 159.639 68.0156 159.418L66.9099 161.409C66.9099 161.74 66.9099 161.74 66.7993 161.851C66.7993 162.293 66.7993 162.957 66.7993 166.716C66.7993 167.158 66.9099 167.711 67.2416 167.932C67.3522 168.043 67.3522 168.264 67.5733 168.264C67.905 168.596 68.1262 168.817 68.4579 168.817C71.2222 169.923 73.2125 170.807 74.7605 171.36C75.9768 171.913 76.9719 172.355 77.5248 172.798Z" fill="white"/>
<path d="M77.5248 172.798C77.1931 173.24 76.8613 173.461 76.4191 173.793C72.2173 177.773 66.5781 180.095 60.3861 180.095C55.5209 180.095 50.8769 178.547 47.0069 175.894C45.9012 175.23 44.906 174.235 43.9109 173.35C44.4637 172.687 45.3483 172.245 47.1175 171.471L47.7809 171.139C49.2183 170.586 51.0981 169.923 53.6412 168.706C54.0835 168.596 54.3047 168.264 54.6364 168.043C56.0738 170.033 58.2852 171.25 60.939 171.25C63.4821 171.25 65.6936 170.033 67.131 168.154C67.4627 168.485 67.6839 168.706 68.0156 168.706C70.7799 169.812 72.7702 170.697 74.3182 171.25C75.9768 171.913 76.9719 172.355 77.5248 172.798Z" fill="#D6DCE8"/>
<path d="M68.9 154.222C69.0106 153.669 68.7895 152.784 68.4577 152.342C68.4577 152.231 68.3472 152.231 68.3472 152.01C67.352 150.02 65.2512 149.357 63.2609 149.246C58.064 148.914 57.6217 149.909 56.0737 148.583C56.6265 149.246 56.6265 150.573 55.742 151.9C55.1891 152.895 54.194 153.448 53.1988 153.779C50.7662 148.472 52.0931 145.044 54.3045 143.938C53.42 142.28 53.42 141.727 53.42 141.727C53.42 141.727 58.2851 142.612 60.0543 142.28C62.1551 141.838 65.4723 142.39 66.7992 145.265C68.9 146.15 69.5635 147.366 69.8952 148.804C70.448 150.794 69.2317 153.227 68.9 154.222Z" fill="#AAB2C5"/>
</g>
</g>
<g filter="url(#filter0_d_445_245150)">
<path d="M171.655 160.587L149.761 138.48C147.516 136.212 144.288 135.362 141.34 135.929L136.007 130.544C151.165 111.555 149.902 83.6376 132.499 66.0654C117.903 51.3275 96.149 48.0682 78.4654 56.4291C73.5533 58.6965 68.9219 61.9558 64.7115 66.0654C59.5187 71.167 55.8697 77.2606 53.6242 83.7793C52.5014 86.8969 51.6593 90.0146 51.2383 93.2739C49.1331 107.87 53.6242 123.317 64.7115 134.512C64.9922 134.795 65.1325 134.937 65.4132 135.22C74.6761 144.29 86.6055 148.683 98.6752 148.683C109.342 148.683 120.008 145.14 128.709 138.055L134.042 143.44C133.481 146.415 134.323 149.675 136.569 151.942L158.322 174.049C161.971 177.734 167.866 177.734 171.515 174.049C175.304 170.365 175.304 164.271 171.655 160.587ZM125.622 127.568C123.937 129.268 122.113 130.686 120.289 132.103C118.464 133.378 116.64 134.37 114.815 135.22C104.71 140.038 92.7807 140.038 82.6758 135.22C78.7461 133.378 75.0971 130.827 71.8691 127.568C62.6063 118.215 59.0977 105.319 61.3432 93.2739C61.9046 90.0146 62.887 86.7552 64.4308 83.7793C66.2553 79.9531 68.7815 76.2686 71.8691 73.151C73.9743 71.0253 76.2199 69.1831 78.6057 67.766C84.781 63.7981 91.7983 61.9558 98.8156 61.9558C108.64 61.9558 118.324 65.6403 125.762 73.151C140.498 88.1723 140.498 112.547 125.622 127.568Z" fill="url(#paint1_linear_445_245150)"/>
</g>
<defs>
<filter id="filter0_d_445_245150" x="28.7344" y="40.9106" width="167.64" height="168.902" filterUnits="userSpaceOnUse" color-interpolation-filters="sRGB">
<feFlood flood-opacity="0" result="BackgroundImageFix"/>
<feColorMatrix in="SourceAlpha" type="matrix" values="0 0 0 0 0 0 0 0 0 0 0 0 0 0 0 0 0 0 127 0" result="hardAlpha"/>
<feOffset dy="11"/>
<feGaussianBlur stdDeviation="11"/>
<feColorMatrix type="matrix" values="0 0 0 0 0.397708 0 0 0 0 0.47749 0 0 0 0 0.575 0 0 0 0.27 0"/>
<feBlend mode="normal" in2="BackgroundImageFix" result="effect1_dropShadow_445_245150"/>
<feBlend mode="normal" in="SourceGraphic" in2="effect1_dropShadow_445_245150" result="shape"/>
</filter>
<linearGradient id="paint0_linear_445_245150" x1="99.5549" y1="112.848" x2="99.5549" y2="108.793" gradientUnits="userSpaceOnUse">
<stop stop-color="white"/>
<stop offset="0.9913" stop-color="#D6DEEA"/>
</linearGradient>
<linearGradient id="paint1_linear_445_245150" x1="112.514" y1="49.0215" x2="112.514" y2="178.159" gradientUnits="userSpaceOnUse">
<stop stop-color="#FDFEFF"/>
<stop offset="0.9964" stop-color="#ECF0F5"/>
</linearGradient>
</defs>
</svg>
