<svg width="204" height="180" viewBox="0 0 204 180" fill="none" xmlns="http://www.w3.org/2000/svg">
<path d="M100 175.2C148.159 175.2 187.2 136.159 187.2 87.9998C187.2 39.8406 148.159 0.799805 100 0.799805C51.8408 0.799805 12.8 39.8406 12.8 87.9998C12.8 136.159 51.8408 175.2 100 175.2Z" fill="#EAEEF9"/>
<g filter="url(#filter0_d_680_12866)">
<path d="M181.347 37.3601V139.347C181.347 143.086 178.268 146.165 174.53 146.165H29.0812C25.3425 146.165 22.2635 143.086 22.2635 139.347V37.3601C22.2635 33.6214 25.3425 30.5425 29.0812 30.5425H174.53C178.268 30.5425 181.347 33.6214 181.347 37.3601Z" fill="url(#paint0_linear_680_12866)"/>
</g>
<path d="M181.347 37.3601V42.3084H22.2635V37.3601C22.2635 33.6214 25.3425 30.5425 29.0812 30.5425H174.53C178.268 30.5425 181.347 33.6214 181.347 37.3601Z" fill="url(#paint1_linear_680_12866)"/>
<path d="M29.4107 38.5697C30.5646 38.5697 31.5 37.6343 31.5 36.4804C31.5 35.3265 30.5646 34.3911 29.4107 34.3911C28.2568 34.3911 27.3214 35.3265 27.3214 36.4804C27.3214 37.6343 28.2568 38.5697 29.4107 38.5697Z" fill="#EAEEF9"/>
<path opacity="0.6" d="M35.8984 38.5697C37.0523 38.5697 37.9877 37.6343 37.9877 36.4804C37.9877 35.3265 37.0523 34.3911 35.8984 34.3911C34.7445 34.3911 33.8091 35.3265 33.8091 36.4804C33.8091 37.6343 34.7445 38.5697 35.8984 38.5697Z" fill="#EAEEF9"/>
<path opacity="0.4" d="M42.4964 38.5697C43.6503 38.5697 44.5857 37.6343 44.5857 36.4804C44.5857 35.3265 43.6503 34.3911 42.4964 34.3911C41.3425 34.3911 40.4071 35.3265 40.4071 36.4804C40.4071 37.6343 41.3425 38.5697 42.4964 38.5697Z" fill="#EAEEF9"/>
<path d="M56.2378 60.6086H34.9964C33.9995 60.6086 33.1559 59.765 33.1559 58.7681V54.0904C33.1559 53.0935 33.9995 52.25 34.9964 52.25H56.2378C57.2347 52.25 58.0782 53.0935 58.0782 54.0904V58.7681C58.0782 59.765 57.2347 60.6086 56.2378 60.6086Z" fill="#C2C8D6"/>
<path d="M129.318 60.6086H108.076C107.079 60.6086 106.236 59.765 106.236 58.7681V54.0904C106.236 53.0935 107.079 52.25 108.076 52.25H129.318C130.315 52.25 131.158 53.0935 131.158 54.0904V58.7681C131.235 59.765 130.391 60.6086 129.318 60.6086Z" fill="#C2C8D6"/>
<path d="M98.4912 60.6086H66.1305C64.9036 60.6086 63.83 59.6117 63.83 58.3081V54.4739C63.83 53.2469 64.8269 52.1733 66.1305 52.1733H98.4912C99.7181 52.1733 100.792 53.1702 100.792 54.4739V58.3081C100.792 59.6117 99.7948 60.6086 98.4912 60.6086Z" fill="#C2C8D6"/>
<path d="M165.973 60.6086H138.98C137.753 60.6086 136.68 59.6117 136.68 58.3081V54.4739C136.68 53.2469 137.676 52.1733 138.98 52.1733H165.973C167.2 52.1733 168.273 53.1702 168.273 54.4739V58.3081C168.273 59.6117 167.276 60.6086 165.973 60.6086Z" fill="#C2C8D6"/>
<path d="M55.3177 74.3352H35.84C34.3063 74.3352 33.0793 73.1083 33.0793 71.5746C33.0793 70.0409 34.3063 68.814 35.84 68.814H55.3177C56.8514 68.814 58.0783 70.0409 58.0783 71.5746C58.0783 73.1083 56.8514 74.3352 55.3177 74.3352Z" fill="#D5DDEA"/>
<path d="M128.474 74.3352H108.996C107.463 74.3352 106.236 73.1083 106.236 71.5746C106.236 70.0409 107.463 68.814 108.996 68.814H128.474C130.008 68.814 131.235 70.0409 131.235 71.5746C131.235 73.1083 130.008 74.3352 128.474 74.3352Z" fill="#D5DDEA"/>
<path d="M98.031 74.3352H66.5906C65.057 74.3352 63.83 73.1083 63.83 71.5746C63.83 70.0409 65.057 68.814 66.5906 68.814H98.1077C99.6414 68.814 100.868 70.0409 100.868 71.5746C100.792 73.1083 99.5647 74.3352 98.031 74.3352Z" fill="#D5DDEA"/>
<path d="M36.3004 73.2613C37.1898 73.2613 37.9108 72.5403 37.9108 71.6509C37.9108 70.7615 37.1898 70.0405 36.3004 70.0405C35.411 70.0405 34.6901 70.7615 34.6901 71.6509C34.6901 72.5403 35.411 73.2613 36.3004 73.2613Z" fill="#989FB0"/>
<path d="M55.3177 86.5276H35.84C34.3063 86.5276 33.0793 85.3006 33.0793 83.767C33.0793 82.2333 34.3063 81.0063 35.84 81.0063H55.3177C56.8514 81.0063 58.0783 82.2333 58.0783 83.767C58.0783 85.3006 56.8514 86.5276 55.3177 86.5276Z" fill="#D5DDEA"/>
<path d="M128.474 86.5276H108.996C107.463 86.5276 106.236 85.3006 106.236 83.767C106.236 82.2333 107.463 81.0063 108.996 81.0063H128.474C130.008 81.0063 131.235 82.2333 131.235 83.767C131.235 85.3006 130.008 86.5276 128.474 86.5276Z" fill="#D5DDEA"/>
<path d="M98.031 86.5276H66.5906C65.057 86.5276 63.83 85.3006 63.83 83.767C63.83 82.2333 65.057 81.0063 66.5906 81.0063H98.1077C99.6414 81.0063 100.868 82.2333 100.868 83.767C100.792 85.3006 99.5647 86.5276 98.031 86.5276Z" fill="#D5DDEA"/>
<path d="M36.3004 85.3775C37.1898 85.3775 37.9108 84.6565 37.9108 83.7671C37.9108 82.8777 37.1898 82.1567 36.3004 82.1567C35.411 82.1567 34.6901 82.8777 34.6901 83.7671C34.6901 84.6565 35.411 85.3775 36.3004 85.3775Z" fill="#989FB0"/>
<path d="M55.3177 98.7205H35.84C34.3063 98.7205 33.0793 97.4935 33.0793 95.9598C33.0793 94.4262 34.3063 93.1992 35.84 93.1992H55.3177C56.8514 93.1992 58.0783 94.4262 58.0783 95.9598C58.0783 97.4935 56.8514 98.7205 55.3177 98.7205Z" fill="#D5DDEA"/>
<path d="M128.474 98.7205H108.996C107.463 98.7205 106.236 97.4935 106.236 95.9598C106.236 94.4262 107.463 93.1992 108.996 93.1992H128.474C130.008 93.1992 131.235 94.4262 131.235 95.9598C131.235 97.4935 130.008 98.7205 128.474 98.7205Z" fill="#D5DDEA"/>
<path d="M98.031 98.7205H66.5906C65.057 98.7205 63.83 97.4935 63.83 95.9598C63.83 94.4262 65.057 93.1992 66.5906 93.1992H98.1077C99.6414 93.1992 100.868 94.4262 100.868 95.9598C100.792 97.4935 99.5647 98.7205 98.031 98.7205Z" fill="#D5DDEA"/>
<path d="M36.3004 97.5703C37.1898 97.5703 37.9108 96.8494 37.9108 95.96C37.9108 95.0706 37.1898 94.3496 36.3004 94.3496C35.411 94.3496 34.6901 95.0706 34.6901 95.96C34.6901 96.8494 35.411 97.5703 36.3004 97.5703Z" fill="#989FB0"/>
<path d="M55.3177 110.837H35.84C34.3063 110.837 33.0793 109.61 33.0793 108.076C33.0793 106.542 34.3063 105.315 35.84 105.315H55.3177C56.8514 105.315 58.0783 106.542 58.0783 108.076C58.0783 109.61 56.8514 110.837 55.3177 110.837Z" fill="#D5DDEA"/>
<path d="M128.474 110.837H108.996C107.463 110.837 106.236 109.61 106.236 108.076C106.236 106.542 107.463 105.315 108.996 105.315H128.474C130.008 105.315 131.235 106.542 131.235 108.076C131.235 109.61 130.008 110.837 128.474 110.837Z" fill="#D5DDEA"/>
<path d="M98.031 110.837H66.5906C65.057 110.837 63.83 109.61 63.83 108.076C63.83 106.542 65.057 105.315 66.5906 105.315H98.1077C99.6414 105.315 100.868 106.542 100.868 108.076C100.792 109.61 99.5647 110.837 98.031 110.837Z" fill="#D5DDEA"/>
<path d="M36.3004 109.763C37.1898 109.763 37.9108 109.042 37.9108 108.152C37.9108 107.263 37.1898 106.542 36.3004 106.542C35.411 106.542 34.6901 107.263 34.6901 108.152C34.6901 109.042 35.411 109.763 36.3004 109.763Z" fill="#989FB0"/>
<path d="M55.3177 123.03H35.84C34.3063 123.03 33.0793 121.803 33.0793 120.269C33.0793 118.735 34.3063 117.508 35.84 117.508H55.3177C56.8514 117.508 58.0783 118.735 58.0783 120.269C58.0783 121.803 56.8514 123.03 55.3177 123.03Z" fill="#D5DDEA"/>
<path d="M128.474 123.03H108.996C107.463 123.03 106.236 121.803 106.236 120.269C106.236 118.735 107.463 117.508 108.996 117.508H128.474C130.008 117.508 131.235 118.735 131.235 120.269C131.235 121.803 130.008 123.03 128.474 123.03Z" fill="#D5DDEA"/>
<path d="M98.031 123.03H66.5906C65.057 123.03 63.83 121.803 63.83 120.269C63.83 118.735 65.057 117.508 66.5906 117.508H98.1077C99.6414 117.508 100.868 118.735 100.868 120.269C100.792 121.803 99.5647 123.03 98.031 123.03Z" fill="#D5DDEA"/>
<path d="M36.3004 121.879C37.1898 121.879 37.9108 121.158 37.9108 120.269C37.9108 119.379 37.1898 118.658 36.3004 118.658C35.411 118.658 34.6901 119.379 34.6901 120.269C34.6901 121.158 35.411 121.879 36.3004 121.879Z" fill="#989FB0"/>
<path d="M55.3177 135.222H35.84C34.3063 135.222 33.0793 133.995 33.0793 132.461C33.0793 130.928 34.3063 129.701 35.84 129.701H55.3177C56.8514 129.701 58.0783 130.928 58.0783 132.461C58.0783 133.995 56.8514 135.222 55.3177 135.222Z" fill="#D5DDEA"/>
<path d="M128.474 135.222H108.996C107.463 135.222 106.236 133.995 106.236 132.461C106.236 130.928 107.463 129.701 108.996 129.701H128.474C130.008 129.701 131.235 130.928 131.235 132.461C131.235 133.995 130.008 135.222 128.474 135.222Z" fill="#D5DDEA"/>
<path d="M98.031 135.222H66.5906C65.057 135.222 63.83 133.995 63.83 132.461C63.83 130.928 65.057 129.701 66.5906 129.701H98.1077C99.6414 129.701 100.868 130.928 100.868 132.461C100.792 133.995 99.5647 135.222 98.031 135.222Z" fill="#D5DDEA"/>
<path d="M36.3004 134.072C37.1898 134.072 37.9108 133.351 37.9108 132.461C37.9108 131.572 37.1898 130.851 36.3004 130.851C35.411 130.851 34.6901 131.572 34.6901 132.461C34.6901 133.351 35.411 134.072 36.3004 134.072Z" fill="#989FB0"/>
<path d="M165.512 74.3352H139.363C137.829 74.3352 136.602 73.1083 136.602 71.5746C136.602 70.0409 137.829 68.814 139.363 68.814H165.512C167.046 68.814 168.273 70.0409 168.273 71.5746C168.273 73.1083 167.046 74.3352 165.512 74.3352Z" fill="#D5DDEA"/>
<path d="M165.512 86.5276H139.363C137.829 86.5276 136.602 85.3006 136.602 83.767C136.602 82.2333 137.829 81.0063 139.363 81.0063H165.512C167.046 81.0063 168.273 82.2333 168.273 83.767C168.273 85.3006 167.046 86.5276 165.512 86.5276Z" fill="#D5DDEA"/>
<path d="M165.512 98.7205H139.363C137.829 98.7205 136.602 97.4935 136.602 95.9598C136.602 94.4262 137.829 93.1992 139.363 93.1992H165.512C167.046 93.1992 168.273 94.4262 168.273 95.9598C168.273 97.4935 167.046 98.7205 165.512 98.7205Z" fill="#D5DDEA"/>
<path d="M165.512 110.837H139.363C137.829 110.837 136.602 109.61 136.602 108.076C136.602 106.542 137.829 105.315 139.363 105.315H165.512C167.046 105.315 168.273 106.542 168.273 108.076C168.273 109.61 167.046 110.837 165.512 110.837Z" fill="#D5DDEA"/>
<path d="M165.512 123.03H139.363C137.829 123.03 136.602 121.803 136.602 120.269C136.602 118.735 137.829 117.508 139.363 117.508H165.512C167.046 117.508 168.273 118.735 168.273 120.269C168.273 121.803 167.046 123.03 165.512 123.03Z" fill="#D5DDEA"/>
<path d="M165.512 135.222H139.363C137.829 135.222 136.602 133.995 136.602 132.461C136.602 130.928 137.829 129.701 139.363 129.701H165.512C167.046 129.701 168.273 130.928 168.273 132.461C168.273 133.995 167.046 135.222 165.512 135.222Z" fill="#D5DDEA"/>
<defs>
<filter id="filter0_d_680_12866" x="0.26355" y="19.5425" width="203.084" height="159.622" filterUnits="userSpaceOnUse" color-interpolation-filters="sRGB">
<feFlood flood-opacity="0" result="BackgroundImageFix"/>
<feColorMatrix in="SourceAlpha" type="matrix" values="0 0 0 0 0 0 0 0 0 0 0 0 0 0 0 0 0 0 127 0" result="hardAlpha"/>
<feOffset dy="11"/>
<feGaussianBlur stdDeviation="11"/>
<feColorMatrix type="matrix" values="0 0 0 0 0.397708 0 0 0 0 0.47749 0 0 0 0 0.575 0 0 0 0.27 0"/>
<feBlend mode="normal" in2="BackgroundImageFix" result="effect1_dropShadow_680_12866"/>
<feBlend mode="normal" in="SourceGraphic" in2="effect1_dropShadow_680_12866" result="shape"/>
</filter>
<linearGradient id="paint0_linear_680_12866" x1="101.754" y1="27.868" x2="101.754" y2="147.411" gradientUnits="userSpaceOnUse">
<stop stop-color="#FDFEFF"/>
<stop offset="0.9964" stop-color="#ECF0F5"/>
</linearGradient>
<linearGradient id="paint1_linear_680_12866" x1="175.037" y1="30.5425" x2="27.4398" y2="37.4905" gradientUnits="userSpaceOnUse">
<stop stop-color="#B0BACC"/>
<stop offset="1" stop-color="#969EAE"/>
</linearGradient>
</defs>
</svg>
